<?xml version="1.0" encoding="UTF-8" standalone="no"?>
<!-- Created with Inkscape (http://www.inkscape.org/) -->

<svg
   width="78.98555mm"
   height="80.77256mm"
   viewBox="0 0 78.98555 80.77256"
   version="1.1"
   id="svg1"
   xml:space="preserve"
   xmlns:inkscape="http://www.inkscape.org/namespaces/inkscape"
   xmlns:sodipodi="http://sodipodi.sourceforge.net/DTD/sodipodi-0.dtd"
   xmlns="http://www.w3.org/2000/svg"
   xmlns:svg="http://www.w3.org/2000/svg"><sodipodi:namedview
     id="namedview1"
     pagecolor="#ffffff"
     bordercolor="#000000"
     borderopacity="0.25"
     inkscape:showpageshadow="2"
     inkscape:pageopacity="0.0"
     inkscape:pagecheckerboard="0"
     inkscape:deskcolor="#d1d1d1"
     inkscape:document-units="mm" /><defs
     id="defs1" /><g
     inkscape:label="Layer 1"
     inkscape:groupmode="layer"
     id="layer1"
     transform="translate(-86.746775,-108.86353)"><g
       id="g34"
       transform="translate(-19.575422,0.40743748)"><rect
         style="fill:#ffffff;stroke:none;stroke-width:4;stroke-linecap:round;stroke-linejoin:round;stroke-dasharray:none"
         id="rect33"
         width="78.985558"
         height="80.77256"
         x="106.3222"
         y="108.45609"
         ry="7.6841159" /><g
         id="g29"
         transform="translate(-40.262324,28.564687)"
         style="fill:#075b3a;fill-opacity:1"><path
           id="path26"
           style="fill:#075b3a;fill-opacity:1;stroke-width:3.99532;stroke-linecap:round;stroke-linejoin:round"
           d="m 166.51648,96.498258 c -4.31644,0 -7.79126,3.474863 -7.79126,7.791252 v 5.14956 h 54.70416 v -5.14956 c 0,-4.316389 -3.47482,-7.791252 -7.79126,-7.791252 z m -7.79126,19.006072 v 27.52752 c 0,4.31644 3.47482,7.79126 7.79126,7.79126 h 39.12164 c 4.31644,0 7.79126,-3.47482 7.79126,-7.79126 v -27.52752 z m 7.90547,5.55987 h 8.56691 c 0.70707,0 1.27641,0.56934 1.27641,1.27641 v 6.03994 c 0,0.70707 -0.56934,1.27589 -1.27641,1.27589 h -8.56691 c -0.70707,0 -1.27641,-0.56882 -1.27641,-1.27589 v -6.03994 c 0,-0.70707 0.56934,-1.27641 1.27641,-1.27641 z m 15.16341,0 h 8.56692 c 0.70708,0 1.27641,0.56934 1.27641,1.27641 v 6.03994 c 0,0.70707 -0.56933,1.27589 -1.27641,1.27589 h -8.56692 c -0.70707,0 -1.27641,-0.56882 -1.27641,-1.27589 v -6.03994 c 0,-0.70707 0.56934,-1.27641 1.27641,-1.27641 z m 15.1629,0 h 8.56692 c 0.70707,0 1.27641,0.56934 1.27641,1.27641 v 6.03994 c 0,0.70707 -0.56934,1.27589 -1.27641,1.27589 H 196.957 c -0.70707,0 -1.27641,-0.56882 -1.27641,-1.27589 v -6.03994 c 0,-0.70707 0.56934,-1.27641 1.27641,-1.27641 z m -30.32631,14.15211 h 8.56691 c 0.70707,0 1.27641,0.56933 1.27641,1.27641 v 6.03994 c 0,0.70708 -0.56934,1.27641 -1.27641,1.27641 h -8.56691 c -0.70707,0 -1.27641,-0.56933 -1.27641,-1.27641 v -6.03994 c 0,-0.70708 0.56934,-1.27641 1.27641,-1.27641 z m 15.16341,0 h 8.56692 c 0.70708,0 1.27641,0.56933 1.27641,1.27641 v 6.03994 c 0,0.70708 -0.56933,1.27641 -1.27641,1.27641 h -8.56692 c -0.70707,0 -1.27641,-0.56933 -1.27641,-1.27641 v -6.03994 c 0,-0.70708 0.56934,-1.27641 1.27641,-1.27641 z m 15.1629,0 h 8.56692 c 0.70707,0 1.27641,0.56933 1.27641,1.27641 v 6.03994 c 0,0.70708 -0.56934,1.27641 -1.27641,1.27641 H 196.957 c -0.70707,0 -1.27641,-0.56933 -1.27641,-1.27641 v -6.03994 c 0,-0.70708 0.56934,-1.27641 1.27641,-1.27641 z" /><g
           id="g28"
           transform="translate(-8.5e-5)"
           style="fill:#075b3a;fill-opacity:1"><path
             id="path27"
             style="fill:#075b3a;fill-opacity:1;stroke:#ffffff;stroke-width:1;stroke-linecap:round;stroke-linejoin:round;stroke-dasharray:none"
             d="m 172.6832,90.232262 c 1.40007,0 2.5272,1.127133 2.5272,2.527204 v 6.570732 c 0,1.400072 -1.12713,2.527202 -2.5272,2.527202 -1.40008,0 -2.52721,-1.12713 -2.52721,-2.527202 v -6.570732 c 0,-1.400071 1.12713,-2.527204 2.52721,-2.527204 z" /><path
             id="path28"
             style="fill:#075b3a;fill-opacity:1;stroke:#ffffff;stroke-width:1;stroke-linecap:round;stroke-linejoin:round;stroke-dasharray:none"
             d="m 199.47157,90.232262 c 1.40007,0 2.52721,1.127133 2.52721,2.527204 v 6.570732 c 0,1.400072 -1.12714,2.527202 -2.52721,2.527202 -1.40007,0 -2.5272,-1.12713 -2.5272,-2.527202 v -6.570732 c 0,-1.400071 1.12713,-2.527204 2.5272,-2.527204 z" /></g></g></g></g></svg>
