<?xml version="1.0" encoding="UTF-8" standalone="no"?>
<!-- Created with Inkscape (http://www.inkscape.org/) -->

<svg
   width="78.985558mm"
   height="80.772568mm"
   viewBox="0 0 78.985558 80.772568"
   version="1.1"
   id="svg1"
   xml:space="preserve"
   xmlns:inkscape="http://www.inkscape.org/namespaces/inkscape"
   xmlns:sodipodi="http://sodipodi.sourceforge.net/DTD/sodipodi-0.dtd"
   xmlns="http://www.w3.org/2000/svg"
   xmlns:svg="http://www.w3.org/2000/svg"><sodipodi:namedview
     id="namedview1"
     pagecolor="#ffffff"
     bordercolor="#000000"
     borderopacity="0.25"
     inkscape:showpageshadow="2"
     inkscape:pageopacity="0.0"
     inkscape:pagecheckerboard="0"
     inkscape:deskcolor="#d1d1d1"
     inkscape:document-units="mm" /><defs
     id="defs1" /><g
     inkscape:label="Layer 1"
     inkscape:groupmode="layer"
     id="layer1"
     transform="translate(-1.6959298,-108.86354)"><g
       id="g6"
       transform="translate(-42.979161,28.448373)"><g
         id="g8"><rect
           style="fill:#ffffff;stroke:none;stroke-width:4;stroke-linecap:round;stroke-linejoin:round;stroke-dasharray:none"
           id="rect5"
           width="78.985558"
           height="80.77256"
           x="44.675091"
           y="80.415161"
           ry="7.6841159" /><path
           id="path5"
           style="fill:#075b3a;fill-opacity:1;stroke-width:10;stroke-linecap:round;stroke-linejoin:round"
           d="m 70.943873,90.779762 c -1.286997,0 -2.322855,1.035857 -2.322855,2.322855 v 3.395659 h -3.769279 c -4.346971,0 -7.84655,3.499063 -7.84655,7.846024 v 4.66277 h 54.325361 v -4.66277 c 0,-4.346961 -3.49957,-7.846024 -7.84655,-7.846024 h -3.769274 v -3.395659 c 0,-1.286998 -1.03586,-2.322855 -2.32285,-2.322855 -1.28699,0 -2.32338,1.035857 -2.32338,2.322855 v 3.395659 h -21.80125 v -3.395659 c 0,-1.286998 -1.036376,-2.322855 -2.323373,-2.322855 z M 57.005189,115.08266 v 27.89391 c 0,4.34696 3.499579,7.84655 7.84655,7.84655 H 103.484 c 4.34698,0 7.84655,-3.49959 7.84655,-7.84655 v -27.89391 z" /></g></g></g></svg>
